<svg xmlns="http://www.w3.org/2000/svg" width="980" height="420" viewBox="0 0 980 420">
  <rect width="100%" height="100%" fill="#ffffff"/>
  <text x="70" y="22" font-size="18" font-family="Arial" font-weight="700">Gemini-Only HB Draft Evolution Scores</text>
  <line x1="70" y1="355.0" x2="950" y2="355.0" stroke="#e5e7eb"/><text x="58" y="359.0" font-size="11" text-anchor="end" font-family="Arial">0</text><line x1="70" y1="291.0" x2="950" y2="291.0" stroke="#e5e7eb"/><text x="58" y="295.0" font-size="11" text-anchor="end" font-family="Arial">20</text><line x1="70" y1="227.0" x2="950" y2="227.0" stroke="#e5e7eb"/><text x="58" y="231.0" font-size="11" text-anchor="end" font-family="Arial">40</text><line x1="70" y1="163.0" x2="950" y2="163.0" stroke="#e5e7eb"/><text x="58" y="167.0" font-size="11" text-anchor="end" font-family="Arial">60</text><line x1="70" y1="99.0" x2="950" y2="99.0" stroke="#e5e7eb"/><text x="58" y="103.0" font-size="11" text-anchor="end" font-family="Arial">80</text><line x1="70" y1="35.0" x2="950" y2="35.0" stroke="#e5e7eb"/><text x="58" y="39.0" font-size="11" text-anchor="end" font-family="Arial">100</text>
  <line x1="70" y1="35" x2="70" y2="355" stroke="#111827"/>
  <line x1="70" y1="355" x2="950" y2="355" stroke="#111827"/>
  <polyline points="70.0,137.4 150.0,156.6 230.0,44.6 310.0,86.2 390.0,51.0 470.0,51.0 550.0,47.8 630.0,47.8 710.0,44.6 790.0,47.8 870.0,47.8 950.0,41.4" fill="none" stroke="#2563eb" stroke-width="3"/>
  <circle cx="70.0" cy="137.4" r="4" fill="#2563eb"/><circle cx="150.0" cy="156.6" r="4" fill="#2563eb"/><circle cx="230.0" cy="44.6" r="4" fill="#2563eb"/><circle cx="310.0" cy="86.2" r="4" fill="#2563eb"/><circle cx="390.0" cy="51.0" r="4" fill="#2563eb"/><circle cx="470.0" cy="51.0" r="4" fill="#2563eb"/><circle cx="550.0" cy="47.8" r="4" fill="#2563eb"/><circle cx="630.0" cy="47.8" r="4" fill="#2563eb"/><circle cx="710.0" cy="44.6" r="4" fill="#2563eb"/><circle cx="790.0" cy="47.8" r="4" fill="#2563eb"/><circle cx="870.0" cy="47.8" r="4" fill="#2563eb"/><circle cx="950.0" cy="41.4" r="4" fill="#2563eb"/>
  <text x="70.0" y="385" font-size="10" text-anchor="middle" font-family="Arial">seed</text><text x="150.0" y="385" font-size="10" text-anchor="middle" font-family="Arial">t01</text><text x="230.0" y="385" font-size="10" text-anchor="middle" font-family="Arial">t02</text><text x="310.0" y="385" font-size="10" text-anchor="middle" font-family="Arial">t03</text><text x="390.0" y="385" font-size="10" text-anchor="middle" font-family="Arial">t04</text><text x="470.0" y="385" font-size="10" text-anchor="middle" font-family="Arial">t05</text><text x="550.0" y="385" font-size="10" text-anchor="middle" font-family="Arial">t06</text><text x="630.0" y="385" font-size="10" text-anchor="middle" font-family="Arial">t07</text><text x="710.0" y="385" font-size="10" text-anchor="middle" font-family="Arial">t08</text><text x="790.0" y="385" font-size="10" text-anchor="middle" font-family="Arial">t09</text><text x="870.0" y="385" font-size="10" text-anchor="middle" font-family="Arial">t10</text><text x="950.0" y="385" font-size="10" text-anchor="middle" font-family="Arial">final</text>
  <text x="720" y="24" font-size="12" font-family="Arial" fill="#2563eb">Gemini 2.5 Pro only</text>
</svg>
